<?xml version="1.0" encoding="UTF-8" standalone="no"?>
<svg
   version="1"
   viewBox="0 0 48 48"
   enable-background="new 0 0 48 48"
   id="svg6"
   sodipodi:docname="ok.svg"
   inkscape:version="1.1.2 (b8e25be833, 2022-02-05)"
   inkscape:export-filename="D:\Devel\Repositories\EPG-CS\Icons\ok.png"
   inkscape:export-xdpi="96"
   inkscape:export-ydpi="96"
   xmlns:inkscape="http://www.inkscape.org/namespaces/inkscape"
   xmlns:sodipodi="http://sodipodi.sourceforge.net/DTD/sodipodi-0.dtd"
   xmlns:xlink="http://www.w3.org/1999/xlink"
   xmlns="http://www.w3.org/2000/svg"
   xmlns:svg="http://www.w3.org/2000/svg">
  <defs
     id="defs10">
    <linearGradient
       inkscape:collect="always"
       id="linearGradient960">
      <stop
         style="stop-color:#4caf50;stop-opacity:1;"
         offset="0"
         id="stop956" />
      <stop
         style="stop-color:#94d197;stop-opacity:1"
         offset="1"
         id="stop958" />
    </linearGradient>
    <linearGradient
       inkscape:collect="always"
       xlink:href="#linearGradient960"
       id="linearGradient1284"
       gradientUnits="userSpaceOnUse"
       x1="2.5"
       y1="24"
       x2="45.5"
       y2="24"
       gradientTransform="matrix(5.9505941,0,0,5.9505941,-98.094424,-127.88061)" />
  </defs>
  <sodipodi:namedview
     id="namedview8"
     pagecolor="#ffffff"
     bordercolor="#666666"
     borderopacity="1.0"
     inkscape:pageshadow="2"
     inkscape:pageopacity="0.0"
     inkscape:pagecheckerboard="0"
     showgrid="false"
     inkscape:zoom="0.76511164"
     inkscape:cx="122.20439"
     inkscape:cy="-27.446975"
     inkscape:window-width="1920"
     inkscape:window-height="1017"
     inkscape:window-x="-8"
     inkscape:window-y="-8"
     inkscape:window-maximized="1"
     inkscape:current-layer="svg6" />
  <path
     id="circle2"
     style="fill:url(#linearGradient1284);fill-opacity:1;stroke:#008000;stroke-width:5.9506"
     d="M 169.68231,14.933634 A 124.96248,124.96248 0 0 1 44.719846,139.89612 124.96248,124.96248 0 0 1 -80.242644,14.933634 124.96248,124.96248 0 0 1 44.719846,-110.02883 124.96248,124.96248 0 0 1 169.68231,14.933634 Z" />
  <path
     style="color:#000000;fill:#e8fca4;stroke:#004c00;stroke-width:5.9506;stroke-linecap:round;stroke-linejoin:round;-inkscape-stroke:none"
     d="M 148.82037,-55.404236 42.441876,30.368004 8.4700256,-14.737976 a 12.892319,12.892319 0 0 0 -18.04936,-2.54528 12.892319,12.892319 0 0 0 -2.5452696,18.06098967 L 29.866606,56.518054 a 12.893608,12.893608 0 0 0 18.39802,2.27798 l 116.745544,-94.11702 a 12.892319,12.892319 0 0 0 1.94092,-18.13071 12.892319,12.892319 0 0 0 -18.13072,-1.95254 z"
     id="path2216" />
</svg>
