<?xml version="1.0" encoding="UTF-8" standalone="no"?>
<svg
   version="1"
   viewBox="0 0 48 48"
   enable-background="new 0 0 48 48"
   id="svg6"
   sodipodi:docname="ok.svg"
   inkscape:version="1.1 (c68e22c387, 2021-05-23)"
   inkscape:export-filename="D:\Devel\Repositories\EPG-CS\Icons\ok.png"
   inkscape:export-xdpi="96"
   inkscape:export-ydpi="96"
   xmlns:inkscape="http://www.inkscape.org/namespaces/inkscape"
   xmlns:sodipodi="http://sodipodi.sourceforge.net/DTD/sodipodi-0.dtd"
   xmlns:xlink="http://www.w3.org/1999/xlink"
   xmlns="http://www.w3.org/2000/svg"
   xmlns:svg="http://www.w3.org/2000/svg">
  <defs
     id="defs10">
    <linearGradient
       inkscape:collect="always"
       id="linearGradient960">
      <stop
         style="stop-color:#4caf50;stop-opacity:1;"
         offset="0"
         id="stop956" />
      <stop
         style="stop-color:#94d197;stop-opacity:1"
         offset="1"
         id="stop958" />
    </linearGradient>
    <linearGradient
       inkscape:collect="always"
       xlink:href="#linearGradient960"
       id="linearGradient1284"
       gradientUnits="userSpaceOnUse"
       x1="2.5"
       y1="24"
       x2="45.5"
       y2="24"
       gradientTransform="matrix(0.47516968,0,0,0.47516968,12.965545,10.483051)" />
  </defs>
  <sodipodi:namedview
     id="namedview8"
     pagecolor="#ffffff"
     bordercolor="#666666"
     borderopacity="1.0"
     inkscape:pageshadow="2"
     inkscape:pageopacity="0.0"
     inkscape:pagecheckerboard="0"
     showgrid="false"
     inkscape:zoom="17.3125"
     inkscape:cx="36.6787"
     inkscape:cy="27.35018"
     inkscape:window-width="1920"
     inkscape:window-height="1017"
     inkscape:window-x="1912"
     inkscape:window-y="-8"
     inkscape:window-maximized="1"
     inkscape:current-layer="svg6" />
  <path
     id="circle2"
     style="fill:url(#linearGradient1284);fill-opacity:1;stroke:#008000;stroke-width:0.47517"
     d="m 34.34818,21.887121 a 9.9785632,9.9785632 0 0 1 -9.978562,9.97856 9.9785632,9.9785632 0 0 1 -9.978564,-9.97856 9.9785632,9.9785632 0 0 1 9.978564,-9.97856 9.9785632,9.9785632 0 0 1 9.978562,9.97856 z"
     inkscape:export-filename="D:\Devel\Repositories\EPG-CS\Icons\ok.png"
     inkscape:export-xdpi="96"
     inkscape:export-ydpi="96" />
  <path
     style="color:#000000;fill:#e8fca4;stroke:#004c00;stroke-width:0.418549;stroke-linecap:round;stroke-linejoin:round;-inkscape-stroke:none"
     d="m 30.963525,17.315021 -7.394887,6.10437 -2.361549,-3.210171 a 0.89620782,0.91754108 0 0 0 -1.254698,-0.181149 0.89620782,0.91754108 0 0 0 -0.176934,1.285398 l 2.919013,3.967014 a 0.8962974,0.91763279 0 0 0 1.278936,0.16212 l 8.11555,-6.698272 a 0.89620782,0.91754108 0 0 0 0.134924,-1.290354 0.89620782,0.91754108 0 0 0 -1.260355,-0.138956 z"
     id="path2216"
     inkscape:export-filename="D:\Devel\Repositories\EPG-CS\Icons\ok.png"
     inkscape:export-xdpi="96"
     inkscape:export-ydpi="96" />
</svg>
