<?xml version="1.0" encoding="UTF-8" standalone="no"?>
<!-- Generator: Adobe Illustrator 19.2.1, SVG Export Plug-In . SVG Version: 6.00 Build 0)  -->

<svg
   version="1.1"
   id="Layer_1"
   x="0px"
   y="0px"
   width="92px"
   height="92px"
   viewBox="0 0 92 92"
   enable-background="new 0 0 92 92"
   xml:space="preserve"
   sodipodi:docname="question.svg"
   inkscape:version="1.1.2 (b8e25be833, 2022-02-05)"
   xmlns:inkscape="http://www.inkscape.org/namespaces/inkscape"
   xmlns:sodipodi="http://sodipodi.sourceforge.net/DTD/sodipodi-0.dtd"
   xmlns="http://www.w3.org/2000/svg"
   xmlns:svg="http://www.w3.org/2000/svg"><defs
   id="defs6" /><sodipodi:namedview
   id="namedview4"
   pagecolor="#ffffff"
   bordercolor="#666666"
   borderopacity="1.0"
   inkscape:pageshadow="2"
   inkscape:pageopacity="0.0"
   inkscape:pagecheckerboard="0"
   showgrid="false"
   inkscape:zoom="0.79837735"
   inkscape:cx="356.34778"
   inkscape:cy="-96.445622"
   inkscape:window-width="1920"
   inkscape:window-height="1017"
   inkscape:window-x="-8"
   inkscape:window-y="-8"
   inkscape:window-maximized="1"
   inkscape:current-layer="Layer_1" />
<path
   style="fill:#ffffff;stroke:#000000;stroke-width:9.60916;stroke-miterlimit:4;stroke-dasharray:none"
   d="m 246.17961,-30.9921 c 0,68.020934 -55.16658,123.187519 -123.18751,123.187519 -68.020934,0 -123.18751857,-55.166585 -123.18751857,-123.187519 0,-68.020937 55.16658457,-123.18751 123.18751857,-123.18751 68.02093,0 123.18751,55.166573 123.18751,123.18751 z"
   id="path332"
   inkscape:export-filename="D:\Devel\Repositories\EPG-CS\Icons\question.png"
   inkscape:export-xdpi="96"
   inkscape:export-ydpi="96" /><path
   id="path330"
   style="stroke-width:2.67798"
   d="m 121.7884,17.632444 c -4.54848,0.140123 -8.11749,5.080208 -7.00823,9.453071 0.81368,3.061429 3.73053,5.378505 6.83945,5.748179 2.47737,0.249098 5.00077,-0.922485 6.4429,-2.943709 2.10378,-2.507306 2.41154,-6.531545 0.22133,-9.087484 -1.53563,-1.947597 -3.96355,-3.334546 -6.49545,-3.170057 z"
   inkscape:export-filename="D:\Devel\Repositories\EPG-CS\Icons\question.png"
   inkscape:export-xdpi="96"
   inkscape:export-ydpi="96" /><path
   id="XMLID_1489_"
   style="stroke-width:2.67798"
   d="m 120.23066,-95.905818 c -8.19112,0.22398 -16.58105,1.924302 -23.557463,6.404351 -8.995502,5.707148 -14.865264,15.98928 -15.318353,26.61776 0.01066,2.079807 1.375748,4.065261 3.370714,4.712618 2.534647,0.895098 5.636942,-0.665583 6.300383,-3.301273 0.424662,-1.563245 0.178457,-3.211289 0.581428,-4.781827 1.377891,-7.396183 6.778844,-13.796885 13.694231,-16.674112 6.935,-3.057208 14.71192,-3.455414 22.17337,-2.863324 7.37229,0.652595 14.87003,2.826504 20.65043,7.617712 5.93298,4.940529 9.53099,12.445429 9.95253,20.129088 0.43852,6.179203 -0.6719,12.557507 -3.64503,18.026081 -2.66456,4.558181 -7.20505,7.987997 -12.3641,9.172094 -1.42285,0.348712 -2.89968,0.545549 -4.26777,0.657657 -3.71531,0.295901 -7.51975,0.05481 -11.12784,1.158711 -3.02696,0.85709 -5.99287,2.699624 -7.30643,5.66905 -1.42337,2.911431 -1.3491,6.224919 -1.3147,9.384034 1.5e-4,2.445525 -0.0998,4.9099796 0.15834,7.3410574 0.75939,2.8253374 4.3033,4.5241984 6.92807,3.130303 1.95979,-0.951789 3.07051,-3.2127447 2.78899,-5.3492259 0.003,-3.7834835 0.006,-7.5669645 0.01,-11.3504475 6.02869,0.111498 12.20302,0.312846 18.02647,-1.522108 7.4504,-2.209194 14.11175,-7.32428 17.69823,-14.276707 3.58041,-6.760535 4.83481,-14.552806 4.57561,-22.140487 -0.50816,-10.33995 -5.15546,-20.543706 -13.09248,-27.281014 -6.57964,-5.626113 -15.00758,-8.707561 -23.51421,-9.841337 -3.77304,-0.533894 -7.59199,-0.695905 -11.39971,-0.638654 z"
   inkscape:export-filename="D:\Devel\Repositories\EPG-CS\Icons\question.png"
   inkscape:export-xdpi="96"
   inkscape:export-ydpi="96" />
</svg>
