<?xml version="1.0" encoding="UTF-8" standalone="no"?>
<!-- Generator: Adobe Illustrator 19.2.1, SVG Export Plug-In . SVG Version: 6.00 Build 0)  -->

<svg
   version="1.1"
   id="Layer_1"
   x="0px"
   y="0px"
   width="92px"
   height="92px"
   viewBox="0 0 92 92"
   enable-background="new 0 0 92 92"
   xml:space="preserve"
   sodipodi:docname="question.svg"
   inkscape:version="1.1 (c68e22c387, 2021-05-23)"
   inkscape:export-filename="D:\Devel\Repositories\EPG-CS\Icons\question.png"
   inkscape:export-xdpi="96"
   inkscape:export-ydpi="96"
   xmlns:inkscape="http://www.inkscape.org/namespaces/inkscape"
   xmlns:sodipodi="http://sodipodi.sourceforge.net/DTD/sodipodi-0.dtd"
   xmlns="http://www.w3.org/2000/svg"
   xmlns:svg="http://www.w3.org/2000/svg"><defs
   id="defs6" /><sodipodi:namedview
   id="namedview4"
   pagecolor="#ffffff"
   bordercolor="#666666"
   borderopacity="1.0"
   inkscape:pageshadow="2"
   inkscape:pageopacity="0.0"
   inkscape:pagecheckerboard="0"
   showgrid="false"
   inkscape:zoom="2.2581522"
   inkscape:cx="217.87726"
   inkscape:cy="-81.261132"
   inkscape:window-width="1920"
   inkscape:window-height="1017"
   inkscape:window-x="1912"
   inkscape:window-y="-8"
   inkscape:window-maximized="1"
   inkscape:current-layer="Layer_1" />
<path
   style="fill:#ffffff;stroke:#000000;stroke-width:0.748904;stroke-miterlimit:4;stroke-dasharray:none"
   d="m 60.631397,44.954957 c 0,5.301308 -4.299486,9.600794 -9.600794,9.600794 -5.301308,0 -9.600795,-4.299486 -9.600795,-9.600794 0,-5.301309 4.299487,-9.600795 9.600795,-9.600795 5.301308,0 9.600794,4.299486 9.600794,9.600795 z"
   id="path332"
   inkscape:export-filename="D:\Devel\Repositories\EPG-CS\Icons\question.png"
   inkscape:export-xdpi="96"
   inkscape:export-ydpi="96" /><path
   id="path330"
   style="stroke-width:0.208712"
   d="m 50.936791,48.74458 c -0.354492,0.01092 -0.632648,0.395933 -0.546196,0.736738 0.06341,0.238597 0.290744,0.419182 0.533042,0.447993 0.193077,0.01941 0.389742,-0.07189 0.502137,-0.229422 0.163961,-0.195411 0.187947,-0.509046 0.01725,-0.708246 -0.119682,-0.151789 -0.308906,-0.259883 -0.506233,-0.247063 z"
   inkscape:export-filename="D:\Devel\Repositories\EPG-CS\Icons\question.png"
   inkscape:export-xdpi="96"
   inkscape:export-ydpi="96" /><path
   id="XMLID_1489_"
   style="stroke-width:0.208712"
   d="m 50.815387,39.895813 c -0.638387,0.01746 -1.292268,0.149974 -1.835985,0.499133 -0.701077,0.444794 -1.158545,1.246147 -1.193858,2.074493 8.31e-4,0.162092 0.107221,0.316832 0.262702,0.367284 0.197541,0.06976 0.439323,-0.05187 0.491029,-0.257289 0.0331,-0.121834 0.01391,-0.250277 0.04531,-0.372679 0.107388,-0.576432 0.528319,-1.07528 1.06728,-1.29952 0.540489,-0.238268 1.146594,-0.269303 1.728113,-0.223158 0.57457,0.05086 1.158917,0.220288 1.60942,0.593698 0.462396,0.385047 0.742812,0.969952 0.775665,1.568789 0.03418,0.481585 -0.05237,0.978687 -0.284081,1.404888 -0.207666,0.355248 -0.561535,0.622556 -0.963613,0.71484 -0.110892,0.02718 -0.225991,0.04252 -0.332615,0.05126 -0.289558,0.02306 -0.586062,0.0043 -0.867264,0.09031 -0.235911,0.0668 -0.467063,0.210399 -0.569437,0.441825 -0.110932,0.226907 -0.105144,0.485148 -0.102463,0.731358 1.2e-5,0.190596 -0.0078,0.382666 0.01234,0.572136 0.05918,0.220197 0.335384,0.3526 0.539949,0.243965 0.152739,-0.07418 0.239304,-0.25039 0.217364,-0.4169 2.34e-4,-0.294871 4.67e-4,-0.589742 7.79e-4,-0.884613 0.469855,0.0087 0.95106,0.02438 1.404919,-0.118628 0.580657,-0.172185 1.099819,-0.570836 1.379336,-1.112683 0.279045,-0.526892 0.376808,-1.134194 0.356607,-1.725551 -0.0396,-0.805859 -0.401798,-1.601103 -1.020381,-2.126185 -0.512794,-0.438479 -1.169637,-0.678636 -1.832613,-0.766998 -0.294058,-0.04161 -0.591693,-0.05424 -0.888453,-0.04978 z"
   inkscape:export-filename="D:\Devel\Repositories\EPG-CS\Icons\question.png"
   inkscape:export-xdpi="96"
   inkscape:export-ydpi="96" />
</svg>
